<svg data-v-0dd9719b="" version="1.0" xmlns="http://www.w3.org/2000/svg" xmlns:xlink="http://www.w3.org/1999/xlink" width="100%" height="100%" viewBox="0 0 340.000000 250.000000" preserveAspectRatio="xMidYMid meet" color-interpolation-filters="sRGB" style="margin: auto;"> <rect data-v-0dd9719b="" x="0" y="0" width="100%" height="100%" fill="#fff" fill-opacity="1" class="background"></rect> <rect data-v-0dd9719b="" x="0" y="0" width="100%" height="100%" fill="url(#watermark)" fill-opacity="1" class="watermarklayer"></rect> <g data-v-0dd9719b="" fill="#f7972c" class="icon-text-wrapper icon-svg-group iconsvg" transform="translate(46.975006103515625,98.76888465881348)"><g class="iconsvg-imagesvg" transform="translate(0,0)"><g><rect fill="#f7972c" fill-opacity="0" stroke-width="2" x="0" y="0" width="60" height="52.462227196418574" class="image-rect"></rect> <svg x="0" y="0" width="60" height="52.462227196418574" filtersec="colorsb3603281809" class="image-svg-svg primary" style="overflow: visible;"><svg xmlns="http://www.w3.org/2000/svg" viewBox="0 0 874.9000244140625 764.989990234375"><g><g><path fill="#ee3d3d" d="M743.59 0L639.46 513.83l120.74 57.53L874.9 0H743.59zM500.31 458.02h-158.1l-44.27 213.64h443.28l18.98-100.07H476.74l23.57-113.57z"></path><path fill="#f7972c" d="M124.88 86.58l-18.39 101.17-.01-.01L0 764.99h130.42L237 241.21l-130.42-53.43h292.55l-25.3 119.57h158.11l46.57-220.77H124.88z"></path></g></g></svg></svg> <!----></g></g> <g transform="translate(67,1.4398651123046875)"><g data-gra="path-name" fill-rule="" class="tp-name iconsvg-namesvg" transform="translate(0,0)"><g transform="scale(1)"><g><path d="M2.85-30.3L2.85-30.3 3.13-30.48Q8.19-29.78 9.42-27.25L9.42-27.25Q10.2-25.7 9.14-24.43L9.14-24.43Q8.12-23.2 6.47-23.7L6.47-23.7Q5.87-23.87 5.31-24.29L5.31-24.29Q4.96-27.07 2.85-30.3ZM0.49-22.5L0.49-22.5 0.81-22.68Q5.66-21.97 6.75-19.55L6.75-19.55Q7.42-18 6.33-16.84L6.33-16.84Q5.24-15.64 3.62-16.24L3.62-16.24Q3.09-16.42 2.6-16.8L2.6-16.8Q2.43-19.83 0.49-22.5ZM27.11-11.07L27.11-11.07 29.32-11.07 29.32-18.56 27.14-18.56 27.14-13.68Q27.14-11.95 27.11-11.07ZM21.41-11.6L21.41-11.6 21.41-2.36Q22.92-6.19 22.92-13.64L22.92-13.64 22.92-20.64Q22.82-20.6 22.54-20.6L22.54-20.6 18.07-20.6 18.07-13.75 19.55-15.4 22.75-12.2Q22.18-11.71 21.41-11.6ZM14.45-12.41L14.45-4.46 17.09-4.46 17.09-12.41 14.45-12.41ZM29.32-19.58L29.32-26.89 27.14-26.89 27.14-19.58 29.32-19.58ZM28.93-27.91L30.97-30.16 35.12-26.93Q34.7-26.44 33.86-26.3L33.86-26.3 33.86-2Q33.86 0.56 32.84 1.74 31.82 2.92 28.48 3.2L28.48 3.2Q28.37 0.74 27.84-0.04L27.84-0.04Q27.14-1.13 25.35-1.48L25.35-1.48 25.35-1.97Q28.02-1.79 28.65-1.79L28.65-1.79Q29.32-1.79 29.32-2.5L29.32-2.5 29.32-10.09 27.04-10.09Q26.89-7.91 26.44-6.15 25.98-4.39 25.01-2.62 24.05-0.84 22.29 0.67 20.53 2.18 18 3.38L18 3.38 17.65 3.09Q20 0.98 21.3-2.07L21.3-2.07Q20.92-1.86 19.9-1.62 18.88-1.37 17.89-1.37L17.89-1.37 17.09-1.37 17.09-3.45 14.45-3.45 14.45 0.46Q14.45 0.81 13.18 1.35 11.92 1.9 10.62 1.9L10.62 1.9 9.98 1.9 9.98-15.26 13.68-13.78 13.68-20.6 9.91-20.6Q8.16-13.08 7.59-10.13L7.59-10.13Q7.17-7.59 7.21-6.54L7.21-6.54Q7.24-5.73 8.07-3.76 8.89-1.79 8.82 0.11L8.82 0.11Q8.79 1.55 7.86 2.44 6.93 3.34 5.48 3.34L5.48 3.34Q3.66 3.34 3.23 1.44L3.23 1.44Q3.76-1.44 3.71-3.83 3.66-6.22 2.99-6.64L2.99-6.64Q2.25-7.17 1.13-7.28L1.13-7.28 1.13-7.91 2.71-7.91Q3.02-7.91 3.15-7.95 3.27-7.98 3.45-8.14 3.62-8.3 3.8-8.68L3.8-8.68Q4.46-9.88 8.37-19.9L8.37-19.9Q9.6-23.03 10.34-24.93L10.34-24.93 10.86-24.79Q10.44-22.92 10.13-21.59L10.13-21.59 13.68-21.59 13.68-30.55 19.41-30.06Q19.3-29.21 18.07-29.04L18.07-29.04 18.07-22.18 19.83-25.21Q21.62-23.38 22.92-21.87L22.92-21.87 22.92-29.64 27.81-27.91 28.93-27.91ZM38.04-20.21L46.83-20.21 46.83-29.71 53.3-29.07Q53.19-28.23 51.96-28.05L51.96-28.05 51.96 1.83Q51.96 2.18 50.57 2.74 49.18 3.3 47.85 3.3L47.85 3.3 46.83 3.3 46.83-7.42Q43.56-4.36 40.68-2.07L40.68-2.07Q40.43-1.27 39.66-1.02L39.66-1.02 36.81-7.31Q39.83-7.91 46.83-9.81L46.83-9.81 46.83-19.23 38.39-19.23 38.04-20.21ZM65.29-24.4L65.29-24.4 71.58-20.5Q71.12-19.79 69.93-20.29L69.93-20.29Q66.3-17.02 60.64-14.45L60.64-14.45 60.64-4.01Q60.64-3.41 60.93-3.16 61.21-2.92 61.95-2.92L61.95-2.92 64.27-2.92Q64.65-2.92 65.29-2.94 65.92-2.95 66.09-2.95L66.09-2.95Q66.8-3.02 67.18-3.48L67.18-3.48Q67.78-4.32 69.12-8.54L69.12-8.54 69.43-8.54 69.61-3.23Q70.59-2.78 70.98-2.29 71.37-1.79 71.37-1.05L71.37-1.05Q71.37 0.63 69.64 1.39 67.92 2.14 63.7 2.14L63.7 2.14 60.64 2.14Q57.62 2.14 56.55 1.21 55.48 0.28 55.48-2.43L55.48-2.43 55.48-29.67 61.91-28.97Q61.84-28.16 60.64-27.98L60.64-27.98 60.64-16.24Q63.49-20.29 65.29-24.4ZM78.93-30.83L78.93-30.83 84.55-27.49Q84.23-26.86 83.14-27.04L83.14-27.04Q78.43-22.18 72.98-19.58L72.98-19.58 72.67-19.9Q74.5-22.11 76.25-25.26 78.01-28.41 78.93-30.83ZM90.88-15.29L90.88-21.27 89.33-21.27 89.33-15.29 90.88-15.29ZM100.79-15.29L100.79-21.27 99.25-21.27 99.25-15.29 100.79-15.29ZM95.87-15.29L95.87-21.27 94.32-21.27 94.32-15.29 95.87-15.29ZM81.56-16.07L81.56-16.07 83.18-15.43Q82.93-14.91 82.09-14.77L82.09-14.77 82.09 1.72Q82.05 2.14 80.74 2.78 79.42 3.41 77.98 3.41L77.98 3.41 77.03 3.41 77.03-11.07Q74.99-9.28 72.98-7.95L72.98-7.95 72.67-8.23Q74.71-11.25 76.48-15.47 78.26-19.69 79.1-23.1L79.1-23.1 84.73-20.43 84.73-24.15 89.68-22.29 91.69-22.29Q91.72-22.71 91.78-23.7 91.83-24.68 91.86-25.03L91.86-25.03 83.92-25.03 83.64-26.02 91.93-26.02Q92.07-28.93 92.11-30.45L92.11-30.45 98.65-29.81Q98.54-28.86 97.24-28.65L97.24-28.65Q97.14-28.05 96.68-26.02L96.68-26.02 99.67-26.02 102.23-29.18Q105.12-27.07 106.88-25.59L106.88-25.59Q106.73-25.03 105.86-25.03L105.86-25.03 96.47-25.03Q96.22-23.77 95.87-22.29L95.87-22.29 100.69-22.29 102.87-24.71 106.98-21.66Q106.66-21.16 105.61-20.99L105.61-20.99 105.61-14.27Q105.61-13.99 104.31-13.68L104.31-13.68Q104.87-13.29 107.4-11.43L107.4-11.43Q107.23-10.83 106.35-10.83L106.35-10.83 83.46-10.83 83.14-11.85 100.41-11.85 101.74-13.39 100.79-13.39 100.79-14.31 89.33-14.31 89.33-13.75Q89.33-13.57 88.91-13.34 88.49-13.11 87.57-12.92 86.66-12.73 85.57-12.73L85.57-12.73 84.73-12.73 84.73-19.55Q84.55-19.48 83.99-19.48L83.99-19.48Q83.25-18.28 81.56-16.07ZM86.73-7.8L86.73-7.8 87.19-7.77Q89.12-2.25 87.01 0.14L87.01 0.14Q86.34 0.95 84.94 0.72 83.53 0.49 83.04-0.67L83.04-0.67Q82.23-2.78 84.41-4.15L84.41-4.15Q85.25-4.75 86.01-5.82 86.77-6.89 86.73-7.8ZM99.88-4.64L100.27-4.64 100.37-1.51Q101.18-1.2 101.44-0.79 101.71-0.39 101.71 0.28L101.71 0.28Q101.71 1.62 100.28 2.25 98.86 2.88 95.52 2.88L95.52 2.88 92.92 2.88Q90.46 2.88 89.72 2.14 88.98 1.41 88.98-0.77L88.98-0.77 88.98-8.72 93.13-8.4Q92.25-9.63 91.27-10.48L91.27-10.48 91.51-10.69Q96.79-10.79 98.37-8.44L98.37-8.44Q99.35-7.03 98.51-5.66L98.51-5.66Q97.66-4.32 96.05-4.57L96.05-4.57Q95.45-4.64 94.82-4.99L94.82-4.99Q94.54-6.12 93.8-7.45L93.8-7.45Q93.59-7.38 93.48-7.38L93.48-7.38 93.48-1.79Q93.48-1.48 93.64-1.37 93.8-1.27 94.29-1.27L94.29-1.27 97.59-1.27Q98.19-1.34 98.44-1.62L98.44-1.62Q98.96-2.29 99.88-4.64L99.88-4.64ZM99.88-7.91L99.88-7.91 100.2-8.09Q105.54-6.79 106.91-3.69L106.91-3.69Q107.79-1.76 106.7-0.28L106.7-0.28Q105.71 1.09 104.1 0.63L104.1 0.63Q103.36 0.46 102.69-0.14L102.69-0.14Q102.66-2.14 101.87-4.24 101.07-6.33 99.88-7.91ZM117.35-20.64L117.35-20.64 119.21-19.93Q119.04-19.41 118.13-19.23L118.13-19.23 118.13 1.9Q118.09 2.07 117.47 2.41 116.86 2.74 115.84 3.04 114.82 3.34 113.87 3.34L113.87 3.34 112.89 3.34 112.89-14.98Q111.13-13.22 109.02-11.71L109.02-11.71 108.6-11.95Q110.81-15.54 112.73-20.64 114.64-25.73 115.56-30.83L115.56-30.83 122.48-28.76Q122.17-27.98 121.01-28.02L121.01-28.02Q119.46-23.98 117.35-20.64ZM142.35-17.02L142.35-17.02 133.03-17.02 133.03 0.49 135.04 0.49 137.85-3.16Q141.01-0.7 142.88 0.95L142.88 0.95Q142.73 1.51 141.86 1.51L141.86 1.51 120.27 1.51 119.99 0.49 127.44 0.49 127.44-17.02 119.29-17.02 118.97-18.04 127.44-18.04 127.44-30.16 134.33-29.57Q134.23-28.69 133.03-28.48L133.03-28.48 133.03-18.04 135.7-18.04 138.45-21.62Q141.57-19.23 143.44-17.61L143.44-17.61Q143.26-17.02 142.35-17.02ZM152.3 3.38L152.3 3.38Q152.3 1.37 151.79 0.56 151.28-0.25 149.7-0.67L149.7-0.67 149.7-1.16Q150.96-1.05 152.47-1.05L152.47-1.05Q153.14-1.05 153.49-1.37L153.49-1.37Q154.44-2.14 154.83-8.09L154.83-8.09Q152.05-5.73 147.62-2.71L147.62-2.71Q147.3-1.93 146.64-1.76L146.64-1.76 144.39-7.21Q148.04-7.63 154.86-8.89L154.86-8.89Q155-10.93 155.04-12.45L155.04-12.45 150.47-12.45 149.03-10.65 145.23-12.9Q145.72-13.32 146.43-13.71L146.43-13.71Q147.2-19.55 147.2-24.01L147.2-24.01 152.4-23.06Q152.19-22.25 151.07-22.22L151.07-22.22Q150.79-17.44 150.29-13.46L150.29-13.46 152.93-13.46Q153.7-20 154.05-27.07L154.05-27.07 146.29-27.07 145.93-28.09 153.7-28.09 155.43-30.23 159.71-27.04Q159.26-26.51 158.2-26.37L158.2-26.37Q158.03-21.52 157.36-15.19L157.36-15.19 160.66-12.41Q160.24-11.92 159.19-11.78L159.19-11.78Q158.94-4.85 158.36-1.92 157.78 1.02 156.45 2.07L156.45 2.07Q154.9 3.38 152.3 3.38ZM170.86-11.67L170.86-11.67 167.63-11.67Q166.89-10.58 165.62-9.32L165.62-9.32Q166.46-7.42 168.15-5.8L168.15-5.8Q169.77-8.26 170.86-11.67ZM170.86-12.66L173-14.91 177.33-11.5Q176.87-11 175.71-10.9L175.71-10.9Q173.92-6.33 171.39-3.55L171.39-3.55Q174.48-2 179.54-1.23L179.54-1.23 179.54-0.84Q176.63-0.04 175.82 3.48L175.82 3.48Q171.07 1.62 168.68-1.09L168.68-1.09Q164.46 2 157.32 3.34L157.32 3.34 157.11 2.85Q163.13 0.46 166.75-3.9L166.75-3.9Q165.66-5.98 164.99-8.68L164.99-8.68Q162.77-6.47 159.79-4.89L159.79-4.89 159.36-5.2Q162.77-9.46 164.64-15.5L164.64-15.5Q162.6-14.24 160.24-13.36L160.24-13.36 159.86-13.68Q161.68-15.93 163.55-19.79L163.55-19.79 161.68-19.3Q161.19-18.7 160.56-18.53L160.56-18.53 159.05-23.8Q159.93-23.98 160.31-24.19L160.31-24.19Q161.79-24.89 163.6-27.18 165.41-29.46 166.11-31.15L166.11-31.15 172.37-28.86Q172.13-28.23 171.11-28.27L171.11-28.27Q168.19-25.77 163.23-23.66L163.23-23.66Q169.31-23.66 172.9-23.7L172.9-23.7Q172.23-24.89 170.72-26.86L170.72-26.86 171-27.07Q176.55-26.37 178.17-23.59L178.17-23.59Q179.16-21.9 178.17-20.5L178.17-20.5Q177.26-19.2 175.61-19.58L175.61-19.58Q175.04-19.72 174.52-20.07L174.52-20.07Q174.16-21.38 173.39-22.82L173.39-22.82Q169.49-21.45 165.06-20.21L165.06-20.21 169-18Q168.61-17.3 167.48-17.54L167.48-17.54Q167.31-17.4 166.94-17.1 166.57-16.8 166.39-16.66L166.39-16.66 170.79-14.98Q170.47-14.24 169.31-14.34L169.31-14.34Q168.75-13.32 168.29-12.66L168.29-12.66 170.86-12.66ZM170.09-19.83L170.09-19.83 170.4-20.07Q176.06-19.97 177.86-17.37L177.86-17.37Q178.88-15.82 178.07-14.41L178.07-14.41Q177.29-13.08 175.68-13.36L175.68-13.36Q175.15-13.43 174.62-13.71L174.62-13.71Q174.02-15.29 172.74-17 171.46-18.7 170.09-19.83Z" transform="translate(-0.49000000953674316, 31.149999618530273)"></path></g> <!----> <!----> <!----> <!----> <!----> <!----> <!----></g></g> <g data-gra="path-slogan" fill-rule="" class="tp-slogan iconsvg-slogansvg" fill="#f7972c" transform="translate(40.60999298095703,40.630001068115234)"><!----> <!----> <g transform="scale(1, 1)"><g transform="scale(1)"><path d="M2.06-5.06L6.56-5.06L6.56-8.58L7.73-8.58L7.73 0L6.56 0L6.56-3.98L2.06-3.98L2.06 0L0.89 0L0.89-8.58L2.06-8.58L2.06-5.06ZM15.19-3.19L15.19-8.58L16.36-8.58L16.36-3.05Q16.22 0.05 12.84 0.14L12.84 0.14Q9.70 0.05 9.56-2.86L9.56-2.86L9.56-8.58L10.73-8.58L10.73-3.19Q10.78-0.84 12.89-0.80L12.89-0.80Q15.19-0.84 15.19-3.19L15.19-3.19ZM21.38-7.64L19.31-7.64L19.31-4.97L21.38-4.97Q23.20-4.92 23.16-6.38L23.16-6.38Q23.16-7.64 21.38-7.64L21.38-7.64ZM21.84 0L18.14 0L18.14-8.58L21.94-8.58Q24.23-8.48 24.33-6.42L24.33-6.42Q24.33-5.16 23.20-4.64L23.20-4.64Q24.80-4.08 24.80-2.53L24.80-2.53Q24.66-0.09 21.84 0L21.84 0ZM21.56-3.98L19.31-3.98L19.31-0.98L21.80-0.98Q23.58-1.03 23.63-2.53L23.63-2.53Q23.63-3.98 21.56-3.98L21.56-3.98ZM27.42-1.03L32.58-1.03L32.58 0L26.25 0L26.25-8.58L32.48-8.58L32.48-7.59L27.42-7.59L27.42-4.92L32.11-4.92L32.11-3.89L27.42-3.89L27.42-1.03ZM34.27-8.58L35.44-8.58L35.44 0L34.27 0L34.27-8.58ZM44.25 0L40.78 0L40.78-8.58L44.30-8.58Q47.77-8.39 47.91-4.41L47.91-4.41Q47.72-0.09 44.25 0L44.25 0ZM44.11-7.64L41.95-7.64L41.95-0.98L44.20-0.98Q46.64-1.13 46.73-4.31L46.73-4.31Q46.69-7.55 44.11-7.64L44.11-7.64ZM50.67-1.03L55.83-1.03L55.83 0L49.50 0L49.50-8.58L55.73-8.58L55.73-7.59L50.67-7.59L50.67-4.92L55.36-4.92L55.36-3.89L50.67-3.89L50.67-1.03ZM63.61-6.09L63.61-6.09L62.53-6.09Q62.44-7.73 60.38-7.83L60.38-7.83Q58.45-7.78 58.45-6.33L58.45-6.33Q58.45-5.39 59.48-5.25L59.48-5.25L61.92-4.69Q63.84-4.22 63.84-2.34L63.84-2.34Q63.80 0.05 60.47 0.14L60.47 0.14Q58.64 0.14 57.89-0.61L57.89-0.61Q56.95-1.31 57-2.77L57-2.77L58.13-2.77Q58.17-0.80 60.47-0.75L60.47-0.75Q62.72-0.80 62.77-2.20L62.77-2.20Q62.95-3.38 60.89-3.75L60.89-3.75L59.11-4.13Q57.28-4.64 57.28-6.19L57.28-6.19Q57.42-8.72 60.28-8.81L60.28-8.81Q63.52-8.81 63.61-6.09ZM66.47-5.06L70.97-5.06L70.97-8.58L72.14-8.58L72.14 0L70.97 0L70.97-3.98L66.47-3.98L66.47 0L65.30 0L65.30-8.58L66.47-8.58L66.47-5.06ZM74.11-8.58L75.28-8.58L75.28 0L74.11 0L74.11-8.58ZM76.55-1.92L76.55-2.77L77.63-2.77L77.63-2.16Q77.63-0.75 78.94-0.75L78.94-0.75Q80.30-0.75 80.30-2.25L80.30-2.25L80.30-8.58L81.47-8.58L81.47-2.30Q81.42 0.09 78.98 0.14L78.98 0.14Q76.69 0.09 76.55-1.92L76.55-1.92ZM88.92-3.19L88.92-8.58L90.09-8.58L90.09-3.05Q89.95 0.05 86.58 0.14L86.58 0.14Q83.44 0.05 83.30-2.86L83.30-2.86L83.30-8.58L84.47-8.58L84.47-3.19Q84.52-0.84 86.63-0.80L86.63-0.80Q88.92-0.84 88.92-3.19L88.92-3.19ZM93.28-8.58L97.59-1.64L97.59-8.58L98.72-8.58L98.72 0L97.41 0L93.05-6.94L93-6.94L93 0L91.88 0L91.88-8.58L93.28-8.58Z" transform="translate(-0.890625, 8.8125)"></path></g></g></g></g></g><defs v-gra="od"></defs></svg>